<svg width="472" height="472" viewBox="0 0 472 472" fill="none" xmlns="http://www.w3.org/2000/svg">
<path d="M236 464.548C362.223 464.548 464.548 362.223 464.548 236C464.548 109.777 362.223 7.45239 236 7.45239C109.777 7.45239 7.45244 109.777 7.45244 236C7.45244 362.223 109.777 464.548 236 464.548Z" fill="#40A459"/>
<path d="M236 7.45239C234.261 7.45239 232.53 7.47913 230.8 7.51785C230.36 7.52799 229.92 7.53813 229.481 7.55103C227.833 7.59713 226.188 7.65705 224.548 7.73817C224.123 7.75938 223.702 7.78796 223.279 7.811C222.032 7.87922 220.787 7.95942 219.545 8.04792C218.919 8.0931 218.294 8.1355 217.671 8.18528C216.23 8.2996 214.792 8.42681 213.359 8.56786C212.618 8.64161 211.879 8.72274 211.141 8.80202C210.255 8.89882 209.369 9.00022 208.486 9.10624C207.72 9.19842 206.953 9.28692 206.189 9.38649C318.326 23.9945 404.926 119.881 404.926 235.999C404.926 352.117 318.326 448.004 206.189 462.612C206.954 462.711 207.72 462.801 208.486 462.892C209.369 462.998 210.255 463.099 211.141 463.196C211.88 463.276 212.618 463.358 213.359 463.43C214.792 463.571 216.229 463.698 217.671 463.813C218.294 463.863 218.919 463.906 219.545 463.95C220.786 464.039 222.031 464.118 223.279 464.187C223.702 464.211 224.124 464.239 224.548 464.26C226.188 464.34 227.833 464.401 229.481 464.447C229.92 464.46 230.36 464.47 230.8 464.48C232.529 464.519 234.26 464.546 236 464.546C362.224 464.546 464.548 362.221 464.548 235.998C464.548 109.775 362.224 7.45239 236 7.45239Z" fill="#378B4E"/>
<path d="M206.189 216.126L301.531 161.413C301.531 161.413 405.827 183.627 429.898 139.705L437.49 125.852L444.092 140.202C457.798 170 465.044 203.126 465.044 236C465.044 311.773 427.512 382.583 364.644 425.411L358.157 429.831L206.189 216.126Z" fill="#898790"/>
<path d="M464.548 236C464.548 196.505 454.529 159.35 436.894 126.938L429.898 139.705C421.443 155.133 410.315 170.91 399.224 185.103C402.947 201.472 404.926 218.505 404.926 236.001C404.926 299.826 378.758 357.533 336.571 398.995L357.912 430.01C422.024 389.529 464.548 317.428 464.548 236Z" fill="#7A797F"/>
<path d="M236 465.044C157.753 465.044 85.68 425.605 43.2055 359.544L39.1557 353.245L166.443 245.937L312.942 451.828L303.606 454.857C281.766 461.617 259.021 465.044 236 465.044Z" fill="#3D9AE3"/>
<path d="M313.866 451.469L298.372 429.285C271.022 446.582 239.657 458.733 206.094 463.106C215.852 464.377 225.894 464.548 235.999 464.548C263.241 464.548 289.639 460.213 313.866 451.469Z" fill="#1D81CE"/>
<path d="M166.442 245.937L206.189 216.126L359.009 429.314L351.582 433.674C341.087 439.833 330.044 445.181 318.756 449.569L312.941 451.829L166.442 245.937Z" fill="white"/>
<path d="M312.941 451.828C329.224 446.035 344.664 438.459 359.009 429.314L336.986 398.592C325.002 410.431 311.713 420.953 297.356 429.927L312.941 451.828Z" fill="#E0E0E3"/>
<path d="M35.2719 346.217C28.9994 334.838 23.6728 322.854 19.4396 310.596L17.5497 303.386L285.684 116.758L325.432 146.569L39.1557 353.244L35.2719 346.217Z" fill="#FFCE00"/>
<path d="M349.499 230.825C335.441 216.143 265.314 140.681 265.314 96.8835C265.314 47.2968 305.655 6.95557 355.242 6.95557C404.828 6.95557 445.17 47.2968 445.17 96.8835C445.17 140.65 375.042 216.135 360.983 230.825L355.242 236.823L349.499 230.825Z" fill="#CD2900"/>
<path d="M355.242 127.192C333.05 127.192 314.997 109.139 314.997 86.9476C314.997 64.7562 333.05 46.7031 355.242 46.7031C377.433 46.7031 395.486 64.7562 395.486 86.9476C395.486 109.139 377.433 127.192 355.242 127.192Z" fill="#891D00"/>
<path d="M136.632 173.895C162.657 173.895 183.832 152.721 183.832 126.695C183.832 122.579 180.495 119.243 176.38 119.243H146.569C142.453 119.243 139.116 122.58 139.116 126.695C139.116 130.811 142.454 134.148 146.569 134.148H168.058C164.686 148.374 151.874 158.989 136.632 158.989C118.825 158.989 104.337 144.501 104.337 126.694C104.337 108.887 118.825 94.3991 136.632 94.3991C144.505 94.3991 152.088 97.2643 157.984 102.465C161.073 105.189 165.782 104.892 168.504 101.805C171.226 98.719 170.931 94.0091 167.845 91.2859C159.224 83.6814 148.139 79.4933 136.632 79.4933C110.607 79.4933 89.432 100.668 89.432 126.693C89.432 152.719 110.606 173.895 136.632 173.895Z" fill="white"/>
<path d="M355.242 134.148C381.267 134.148 402.442 112.973 402.442 86.9476C402.442 60.9221 381.267 39.7476 355.242 39.7476C329.216 39.7476 308.042 60.9221 308.042 86.9476C308.042 112.973 329.216 134.148 355.242 134.148ZM355.242 54.6524C373.049 54.6524 387.537 69.1406 387.537 86.9476C387.537 104.754 373.049 119.243 355.242 119.243C337.435 119.243 322.947 104.754 322.947 86.9476C322.947 69.1406 337.435 54.6524 355.242 54.6524Z" fill="black"/>
<path d="M445.106 126.533C449.486 115.966 452.126 105.871 452.126 96.8845C452.126 43.4618 408.664 0 355.242 0C338.623 0 322.971 4.20744 309.289 11.6101C285.699 3.91059 261.046 0 236 0C172.962 0 113.698 24.5477 69.1231 69.1231C24.5486 113.699 0 172.962 0 236C0 299.038 24.5477 358.302 69.1231 402.877C113.699 447.451 172.962 472 236 472C299.038 472 358.302 447.452 402.877 402.877C447.451 358.301 472 299.037 472 236C472 197.88 462.693 160.075 445.106 126.533ZM355.242 14.9049C400.446 14.9049 437.22 51.6803 437.22 96.8835C437.22 132.344 382.267 197.09 355.241 225.327C328.213 197.1 273.263 132.369 273.263 96.8835C273.263 51.6803 310.039 14.9049 355.242 14.9049ZM14.9049 236C14.9049 114.088 114.088 14.9049 236 14.9049C255.491 14.9049 274.722 17.4308 293.338 22.4154C271.979 40.202 258.358 66.9807 258.358 96.8845C258.358 105.487 260.786 115.11 264.835 125.186L22.3794 293.038C17.5138 274.834 14.9049 255.718 14.9049 236ZM236 457.095C157.97 457.095 89.2532 416.462 49.8919 355.245L114.198 308.251C117.853 305.58 118.264 300.278 115.062 297.077C115.026 297.041 114.99 297.005 114.956 296.971C112.384 294.399 108.322 294.085 105.386 296.231L42.2348 342.381C36.2094 331.449 31.0829 319.957 26.9538 308.003L271.173 138.927C275.484 147.282 280.619 155.773 286.182 164.109L134.927 274.642C131.272 277.313 130.861 282.616 134.063 285.817C134.099 285.853 134.135 285.889 134.169 285.923C136.741 288.495 140.803 288.809 143.739 286.663L173.573 264.862L301.255 447.262C280.621 453.649 258.706 457.095 236 457.095ZM315.875 442.159L185.61 256.066L213.675 235.557L347.557 426.817C337.476 432.734 326.89 437.877 315.875 442.159ZM360.167 418.842L225.711 226.761L294.703 176.344C319.365 210.375 347.867 239.159 349.963 241.262C351.362 242.665 353.262 243.454 355.242 243.454C357.222 243.454 359.122 242.666 360.52 241.262C363.272 238.502 411.533 189.758 436.869 143.527C450.126 172.345 457.094 204.054 457.094 236.001C457.095 311.917 418.628 379.014 360.167 418.842Z" fill="black"/>
</svg>
