<svg width="54" height="47" viewBox="0 0 54 47" fill="none" xmlns="http://www.w3.org/2000/svg">
<path d="M27 0L54 46.86H0L27 0Z" fill="#690589" fill-opacity="0.65"/>
<path d="M29.423 19.0911H24.5768C23.6202 19.0911 22.8447 19.8682 22.8447 20.8267V39.3393C22.8447 40.2978 23.6202 41.0748 24.5768 41.0748H29.423C30.3796 41.0748 31.1551 40.2978 31.1551 39.3393V20.8267C31.1551 19.8682 30.3796 19.0911 29.423 19.0911Z" fill="white"/>
<path d="M16.0303 27.6549V32.511C16.0303 33.4695 16.8057 34.2465 17.7623 34.2465H36.2377C37.1943 34.2465 37.9697 33.4695 37.9697 32.511V27.6549C37.9697 26.6964 37.1943 25.9194 36.2377 25.9194H17.7623C16.8057 25.9194 16.0303 26.6964 16.0303 27.6549Z" fill="white"/>
</svg>
